<svg width="30" height="30" viewBox="0 0 30 30" fill="none" xmlns="http://www.w3.org/2000/svg">
<g id="Bold Duotone / Notifications / Bell ">
<path id="Vector" opacity="0.5" d="M23.4364 11.25V12.1301C23.4364 13.1864 23.7379 14.219 24.3028 15.0978L25.687 17.2514C26.9515 19.2186 25.9862 21.8924 23.787 22.5144C18.0341 24.1418 11.9659 24.1418 6.21295 22.5144C4.01381 21.8924 3.04853 19.2186 4.31295 17.2514L5.69725 15.0978C6.26215 14.219 6.56359 13.1864 6.56359 12.1301V11.25C6.56359 6.41751 10.3407 2.5 15 2.5C19.6593 2.5 23.4364 6.41751 23.4364 11.25Z" fill="#1C274C"/>
<path id="Vector_2" d="M9.0542 23.1815C9.86787 25.688 12.2223 27.5 15 27.5C17.7777 27.5 20.1322 25.688 20.9458 23.1815C17.014 23.9194 12.986 23.9194 9.0542 23.1815Z" fill="#1C274C"/>
</g>
</svg>
