<svg width="30" height="30" viewBox="0 0 30 30" fill="none" xmlns="http://www.w3.org/2000/svg">
<g id="Bold Duotone / Time / Calendar">
<path id="Vector" d="M8.67535 2.5C9.19518 2.5 9.61658 2.90526 9.61658 3.40517V5.23109C10.4515 5.21552 11.3873 5.21552 12.4402 5.21552H17.4601C18.5131 5.21552 19.4489 5.21552 20.2838 5.23109V3.40517C20.2838 2.90526 20.7052 2.5 21.225 2.5C21.7448 2.5 22.1662 2.90526 22.1662 3.40517V5.31117C23.9725 5.45027 25.1583 5.79166 26.0295 6.62948C26.9007 7.46731 27.2557 8.6077 27.4003 10.3448L27.5 11.25H3.65569H2.5V10.3448C2.64464 8.6077 2.99962 7.46731 3.87082 6.62948C4.74201 5.79166 5.92782 5.45027 7.73413 5.31117V3.40517C7.73413 2.90526 8.15553 2.5 8.67535 2.5Z" fill="#1C274C"/>
<path id="Vector_2" opacity="0.5" d="M27.4999 17.5V15C27.4999 13.9512 27.4958 12.0815 27.4797 11.2499H2.51195C2.49582 12.0815 2.4999 13.9512 2.4999 15V17.5C2.4999 22.214 2.4999 24.571 3.96436 26.0355C5.42883 27.5 7.78585 27.5 12.4999 27.5H17.4999C22.2139 27.5 24.571 27.5 26.0354 26.0355C27.4999 24.571 27.4999 22.214 27.4999 17.5Z" fill="#1C274C"/>
<g id="Vector_3">
<path d="M22.5 21.25C22.5 21.9404 21.9404 22.5 21.25 22.5C20.5596 22.5 20 21.9404 20 21.25C20 20.5596 20.5596 20 21.25 20C21.9404 20 22.5 20.5596 22.5 21.25Z" fill="#1C274C"/>
<path d="M22.5 16.25C22.5 16.9404 21.9404 17.5 21.25 17.5C20.5596 17.5 20 16.9404 20 16.25C20 15.5596 20.5596 15 21.25 15C21.9404 15 22.5 15.5596 22.5 16.25Z" fill="#1C274C"/>
</g>
<g id="Vector_4">
<path d="M16.25 21.25C16.25 21.9404 15.6904 22.5 15 22.5C14.3096 22.5 13.75 21.9404 13.75 21.25C13.75 20.5596 14.3096 20 15 20C15.6904 20 16.25 20.5596 16.25 21.25Z" fill="#1C274C"/>
<path d="M16.25 16.25C16.25 16.9404 15.6904 17.5 15 17.5C14.3096 17.5 13.75 16.9404 13.75 16.25C13.75 15.5596 14.3096 15 15 15C15.6904 15 16.25 15.5596 16.25 16.25Z" fill="#1C274C"/>
</g>
<g id="Vector_5">
<path d="M10 21.25C10 21.9404 9.44036 22.5 8.75 22.5C8.05964 22.5 7.5 21.9404 7.5 21.25C7.5 20.5596 8.05964 20 8.75 20C9.44036 20 10 20.5596 10 21.25Z" fill="#1C274C"/>
<path d="M10 16.25C10 16.9404 9.44036 17.5 8.75 17.5C8.05964 17.5 7.5 16.9404 7.5 16.25C7.5 15.5596 8.05964 15 8.75 15C9.44036 15 10 15.5596 10 16.25Z" fill="#1C274C"/>
</g>
</g>
</svg>
