<svg width="30" height="30" viewBox="0 0 30 30" fill="none" xmlns="http://www.w3.org/2000/svg">
<g id="Bold Duotone / Time / Clock Circle">
<path id="Vector" opacity="0.5" d="M15 27.5C21.9036 27.5 27.5 21.9036 27.5 15C27.5 8.09644 21.9036 2.5 15 2.5C8.09644 2.5 2.5 8.09644 2.5 15C2.5 21.9036 8.09644 27.5 15 27.5Z" fill="#1C274C"/>
<path id="Vector_2" fill-rule="evenodd" clip-rule="evenodd" d="M15 9.0625C15.5178 9.0625 15.9375 9.48223 15.9375 10V14.6117L18.7879 17.4621C19.154 17.8282 19.154 18.4218 18.7879 18.7879C18.4218 19.154 17.8282 19.154 17.4621 18.7879L14.3371 15.6629C14.1613 15.4871 14.0625 15.2486 14.0625 15V10C14.0625 9.48223 14.4822 9.0625 15 9.0625Z" fill="#1C274C"/>
</g>
</svg>
