<svg width="30" height="30" viewBox="0 0 30 30" fill="none" xmlns="http://www.w3.org/2000/svg">
<g id="Bold Duotone / Nature, Travel / Flame">
<path id="Vector" d="M25 18.7503C25 24.0684 21.7274 26.402 19.1985 27.189C19.0932 27.2217 18.995 27.2242 18.9075 27.2034C18.5467 27.1177 18.3678 26.6377 18.6274 26.2645C19.7279 24.683 21 22.2701 21 20.0003C21 17.562 18.9449 14.6834 17.3401 12.9079C16.9733 12.502 16.3333 12.7706 16.3133 13.3173C16.247 15.1288 15.9612 17.5525 14.7285 19.4519C14.5301 19.7577 14.1089 19.783 13.8829 19.4971C13.4977 19.0101 13.1126 18.4083 12.7275 17.933C12.52 17.677 12.1451 17.6734 11.9058 17.9C10.9728 18.7834 9.66667 20.161 9.66667 21.8753C9.66667 23.0376 10.117 24.2562 10.6251 25.2367C10.8778 25.7244 10.4957 26.3019 10.0225 26.1994C9.97239 26.1885 9.92121 26.17 9.86966 26.143C7.64133 24.9736 5 22.6048 5 18.7503C5 14.8172 10.3879 9.36878 12.4451 4.2214C12.7697 3.40916 13.7701 3.02749 14.4659 3.55754C18.6799 6.76761 25 12.9729 25 18.7503Z" fill="#1C274C"/>
<path id="Vector_2" opacity="0.5" d="M9.66675 21.8755C9.66675 23.0379 10.1171 24.2565 10.6252 25.2369C10.8779 25.7246 10.4958 26.3021 10.0226 26.1997C10.625 26.875 14.5953 27.3969 18.9076 27.2037C18.5468 27.118 18.3678 26.6379 18.6275 26.2648C19.728 24.6833 21.0001 22.2704 21.0001 20.0005C21.0001 17.5623 18.945 14.6837 17.3402 12.9082C16.9733 12.5022 16.3334 12.7708 16.3134 13.3176C16.2471 15.1291 15.9613 17.5527 14.7286 19.4522C14.5302 19.758 14.109 19.7833 13.883 19.4974C13.4978 19.0103 13.1127 18.4086 12.7275 17.9333C12.5201 17.6772 12.1451 17.6737 11.9058 17.9003C10.9729 18.7837 9.66675 20.1612 9.66675 21.8755Z" fill="#1C274C"/>
</g>
</svg>
